P2
# 'Gambiarra você não corrige. Você Melhora. CARVALHO, Leandra' 
64 64
255
198 164 72 72 71 71 76 144 195 211 216 215 201 172 95 71 72 73 73 93 170 202 111 22 41 28 18 44 33 38 26 44 31 29 39 62 56 39 34 43 30 42 79 98 103 81 69 70 74 72 68 72 83 161 191 203 205 205 194 166 94 70 71 79 
192 162 74 71 72 71 75 138 184 204 209 206 195 174 130 71 72 72 77 136 177 137 25 27 29 43 65 46 34 50 35 30 33 41 52 51 28 32 31 37 31 35 44 78 145 144 121 109 105 103 111 128 144 165 179 190 193 189 180 151 87 73 71 108 
179 146 74 71 71 70 70 125 171 189 194 192 185 174 139 123 120 130 148 166 169 93 28 28 29 34 45 50 50 44 49 30 38 47 39 61 28 43 39 33 33 32 54 39 137 157 144 142 141 142 145 152 162 169 174 176 167 166 149 126 75 73 76 118 
160 133 78 73 72 72 72 94 135 157 172 171 169 154 144 142 143 148 152 170 94 33 33 28 32 32 27 37 48 59 48 31 35 55 43 41 39 50 31 38 40 39 33 32 79 142 145 144 144 145 147 148 147 154 144 137 135 128 115 94 72 73 103 124 
136 118 80 74 72 73 73 73 105 124 133 137 137 141 138 135 142 143 146 124 29 39 30 25 27 34 46 51 51 51 50 45 49 64 65 59 49 57 42 26 37 42 42 37 40 114 126 125 130 127 126 123 122 120 116 115 109 103 90 73 73 74 106 122 
122 108 83 76 74 73 75 73 77 98 107 114 116 117 116 114 117 116 116 78 51 35 42 20 23 41 47 47 46 50 55 58 62 75 77 83 101 105 86 50 34 43 50 38 44 93 105 104 104 104 105 103 101 101 102 96 94 82 75 76 75 74 98 108 
103 94 81 75 76 75 72 75 77 75 80 95 98 99 98 99 100 100 100 58 30 33 30 20 57 93 83 90 87 79 86 101 96 109 122 136 134 139 132 110 51 45 38 39 38 79 94 94 93 91 91 92 90 88 86 79 76 78 76 76 75 75 81 93 
89 86 75 75 76 75 75 75 77 74 73 76 77 85 87 87 87 87 84 37 18 21 21 43 126 127 134 136 144 136 131 143 142 141 140 149 149 147 141 133 101 36 46 42 40 65 102 104 108 111 115 116 115 113 115 118 116 119 119 123 123 125 130 131 
79 76 81 77 79 81 79 87 87 93 93 99 101 107 111 113 118 121 115 30 25 24 32 88 133 142 145 147 152 152 155 155 152 152 155 157 156 158 152 144 128 47 67 50 33 108 174 177 179 179 180 178 179 176 176 177 177 177 176 176 177 177 176 179 
157 158 159 159 161 162 164 165 166 169 168 172 171 171 174 175 174 175 170 38 29 26 36 106 138 145 145 156 154 159 155 158 155 158 160 158 155 149 144 139 127 62 50 38 34 160 193 195 194 192 192 190 188 188 187 186 186 184 183 181 184 181 182 181 
171 171 170 170 170 172 172 171 174 174 175 175 176 176 177 178 178 178 178 35 26 26 51 106 130 141 142 150 146 151 150 154 160 152 151 152 148 145 147 144 123 74 39 37 36 89 177 178 180 179 178 178 178 177 177 174 174 176 174 174 173 171 173 172 
164 164 162 166 165 164 165 166 168 167 166 170 171 171 171 171 170 171 172 63 17 32 46 110 133 139 139 148 150 152 157 156 152 155 154 149 147 147 152 144 132 93 45 28 27 101 174 172 173 173 171 173 171 173 173 170 173 170 168 169 168 166 166 164 
153 152 153 153 155 155 155 153 155 155 154 157 159 159 159 160 162 162 162 77 24 23 56 119 136 136 145 146 151 158 157 152 153 156 155 157 154 153 146 143 139 101 50 34 33 151 169 169 170 170 172 171 169 171 168 168 168 168 168 166 166 166 166 167 
153 155 154 157 158 157 159 158 158 157 158 158 159 160 160 160 159 159 159 50 15 21 90 130 139 137 139 148 145 151 158 159 157 158 154 154 153 151 152 141 146 127 53 24 32 154 154 157 155 152 153 152 152 150 145 144 144 145 142 141 134 133 129 127 
147 146 147 147 148 149 149 148 148 147 146 146 145 144 147 142 141 139 139 118 25 36 106 132 139 144 143 157 159 160 160 160 160 159 161 157 159 155 151 148 146 136 85 42 58 87 85 85 84 84 84 83 85 82 82 78 79 77 78 77 75 73 73 73 
87 89 90 90 90 92 89 90 92 92 88 88 89 88 89 90 91 87 86 88 58 55 123 133 127 87 72 52 74 125 153 144 146 141 142 135 112 87 70 94 127 151 120 54 104 83 80 82 81 81 81 80 82 82 83 79 79 79 78 78 76 74 75 76 
91 90 90 90 90 89 87 88 87 86 87 86 86 87 87 87 87 86 84 85 71 85 129 137 130 107 130 92 100 68 78 135 123 120 89 53 50 59 115 108 109 142 128 94 86 83 80 82 81 79 83 82 82 84 82 81 80 81 81 81 78 79 77 79 
88 86 87 86 87 86 85 83 82 82 83 80 84 84 84 84 84 84 83 84 130 87 135 130 131 135 90 26 38 106 93 120 137 138 104 87 11 23 57 76 133 130 133 109 112 83 82 83 83 81 82 82 81 80 82 80 82 81 81 81 81 80 79 81 
82 82 83 83 82 83 82 82 82 81 81 81 83 83 81 84 82 82 81 84 122 71 132 130 134 135 149 168 148 136 142 128 158 152 132 145 149 133 135 143 130 135 130 130 118 86 84 84 85 85 83 84 83 83 82 81 83 81 82 79 80 80 80 79 
82 81 82 81 82 82 80 82 81 83 82 83 83 82 82 81 81 82 83 81 137 120 137 134 129 149 153 136 153 122 143 142 160 150 134 144 123 125 151 152 146 131 130 136 103 81 83 85 86 83 84 84 85 83 83 82 82 82 81 81 79 81 81 79 
81 83 82 83 84 83 82 84 84 83 84 83 83 84 83 84 83 85 81 83 86 135 137 137 146 153 163 165 164 159 150 150 162 151 143 145 158 164 162 162 153 137 134 122 78 85 84 87 84 86 85 84 83 84 83 82 81 82 83 81 80 81 80 81 
82 82 84 83 83 83 80 84 84 83 85 85 84 84 85 86 86 84 86 86 83 148 131 135 149 163 162 160 149 129 133 156 161 153 137 123 145 157 153 152 145 137 132 123 85 85 84 86 86 86 84 84 81 85 83 84 82 83 82 83 83 79 79 79 
83 83 83 83 83 84 84 84 84 81 82 85 85 86 87 89 87 87 88 87 87 129 134 128 130 144 141 123 101 96 149 151 154 151 137 144 101 125 145 148 132 132 132 145 86 86 87 83 85 85 84 86 83 84 82 82 84 83 82 85 82 83 83 83 
87 85 86 87 88 87 87 87 87 88 89 88 87 89 91 89 90 90 90 90 89 164 127 119 105 120 116 91 114 110 130 134 141 143 139 105 128 108 123 126 122 125 135 124 91 90 90 88 87 88 88 87 89 90 90 88 91 100 96 92 90 88 87 91 
93 94 92 91 92 90 91 91 90 91 91 93 92 94 91 90 88 89 91 91 89 83 127 132 99 108 111 110 125 119 107 54 58 100 95 123 129 116 115 114 111 133 135 100 101 100 95 96 94 94 95 96 97 99 96 97 108 115 113 109 104 99 95 99 
120 106 100 93 87 88 87 88 88 87 89 90 90 88 89 88 87 86 84 86 84 84 101 129 120 103 101 116 117 128 129 97 81 85 130 134 138 130 130 110 123 134 151 143 114 110 107 108 109 108 108 109 110 110 110 110 117 123 122 118 114 106 104 106 
126 113 102 93 81 83 81 84 80 84 85 87 86 89 88 86 87 87 88 88 88 87 92 108 130 121 103 47 37 96 113 115 115 121 120 112 108 68 118 125 132 130 173 152 129 126 129 127 129 127 126 128 129 129 129 130 130 132 132 129 122 120 121 122 
131 124 116 108 103 103 105 106 106 107 107 109 111 111 112 112 113 114 116 116 116 116 22 104 117 112 110 126 135 103 181 186 189 123 105 139 58 153 130 130 137 123 177 164 145 144 143 144 145 145 146 147 146 148 145 145 144 145 145 144 143 140 142 140 
137 135 130 129 130 130 131 130 131 132 133 134 137 138 136 138 138 141 143 144 144 143 31 185 93 94 116 125 114 161 110 173 183 185 168 107 128 151 137 119 125 171 185 173 157 159 160 159 160 159 159 160 160 159 160 159 159 159 157 156 159 157 155 155 
147 149 148 148 149 151 152 151 152 152 154 155 155 156 157 156 157 158 159 160 161 95 15 28 183 92 114 130 137 122 138 162 157 154 157 148 121 134 129 117 123 166 168 166 166 165 165 165 166 166 166 168 165 165 163 163 163 163 165 164 163 161 162 162 
156 155 158 160 159 159 159 161 161 160 164 163 163 163 162 163 164 164 164 163 166 24 20 14 191 58 117 138 137 131 106 122 127 127 122 115 129 142 130 109 188 189 167 168 167 168 167 166 166 166 166 168 168 168 169 166 164 165 165 164 164 164 163 163 
157 159 160 160 162 162 162 162 163 164 163 166 164 165 166 165 166 166 165 162 168 24 14 6 20 190 88 114 148 135 127 125 134 139 130 123 139 140 119 110 200 34 166 166 169 165 179 174 171 172 174 179 172 184 168 168 166 165 165 165 163 165 164 165 
160 159 161 163 163 163 163 164 164 164 164 165 164 166 166 166 167 167 161 85 40 25 21 15 13 17 194 100 137 148 139 137 157 147 148 149 153 138 116 200 190 13 42 137 171 170 175 178 174 172 157 161 161 144 142 165 166 166 165 165 164 165 163 164 
159 160 161 163 163 163 163 164 164 164 166 166 166 166 165 167 170 100 53 46 33 24 25 17 6 24 6 165 57 130 133 135 142 137 131 143 123 110 133 195 196 5 51 162 167 169 173 181 156 166 174 176 159 135 154 171 164 173 165 163 164 165 163 163 
159 160 160 161 162 162 162 164 164 163 164 166 162 176 41 39 44 42 36 39 30 17 24 24 18 13 14 6 157 113 85 116 123 116 118 97 79 108 201 198 204 135 145 166 166 163 60 171 159 152 177 166 175 132 149 155 158 151 153 155 154 151 149 151 
154 149 150 151 150 149 148 147 150 149 150 148 49 34 38 34 31 31 29 25 25 14 19 23 21 20 14 11 14 166 144 127 62 62 59 62 108 57 202 200 211 210 142 162 154 87 118 157 129 116 156 135 120 87 117 133 126 127 135 136 136 136 135 133 
145 131 133 130 130 130 126 127 125 135 35 43 41 35 36 45 36 30 28 26 24 22 18 24 29 21 21 18 15 7 158 152 123 147 162 20 58 198 195 130 119 110 155 149 115 103 58 135 135 110 117 109 91 63 135 123 127 125 122 120 119 116 119 118 
141 113 111 110 109 106 104 80 47 43 46 42 43 36 36 32 34 30 29 26 26 27 21 26 24 7 20 16 17 15 9 186 169 157 7 25 40 38 126 115 114 135 159 152 130 131 152 140 120 132 110 106 72 113 114 112 30 86 121 114 111 106 104 105 
136 97 94 91 88 58 50 46 43 42 35 32 30 38 41 36 33 30 26 25 5 2 3 13 10 18 21 19 19 18 19 19 201 46 28 37 27 42 79 147 220 142 158 152 130 41 54 64 90 114 98 26 93 106 108 99 27 32 16 97 117 106 99 105 
135 94 50 38 41 42 43 38 41 32 33 35 29 31 31 31 21 28 26 26 25 20 12 25 19 22 23 21 21 20 19 21 23 27 41 18 31 80 96 98 128 147 159 156 137 47 43 99 115 58 83 85 108 110 116 32 29 26 26 28 127 103 96 101 
135 32 26 25 22 24 30 38 34 31 37 29 29 29 23 27 21 25 30 23 25 33 27 21 17 21 19 21 18 18 20 19 22 21 4 21 50 16 48 75 140 143 148 147 143 98 64 52 44 112 134 107 114 115 29 29 28 30 29 25 29 107 97 101 
114 23 24 22 22 19 25 24 27 29 32 33 30 31 25 21 24 25 33 29 16 21 21 23 22 24 23 21 24 21 20 21 24 21 25 2 31 45 34 165 159 148 148 151 137 111 126 119 137 141 123 108 115 30 34 30 30 28 28 6 29 116 97 99 
22 23 21 24 26 27 26 24 27 25 35 36 29 26 25 19 26 22 23 24 28 12 25 22 22 21 21 22 22 19 21 22 25 23 26 22 122 164 165 164 158 151 145 150 132 119 145 129 131 130 120 103 40 33 34 35 31 29 29 21 27 68 91 89 
17 17 14 9 9 11 26 18 21 26 24 28 32 27 23 19 21 26 24 21 25 22 15 22 21 22 23 24 23 24 24 22 26 15 133 79 169 166 168 166 158 144 145 127 134 116 123 123 116 117 89 36 31 33 33 32 32 28 27 29 23 16 86 85 
7 5 4 1 3 3 2 5 6 27 21 25 24 25 21 24 22 18 20 21 23 21 21 16 26 21 20 24 21 19 21 23 36 187 25 117 159 158 163 166 156 125 128 120 116 121 135 112 103 79 34 36 35 34 32 32 29 31 29 27 23 25 108 109 
6 2 9 14 21 25 29 21 14 4 13 16 23 22 21 23 23 19 22 22 22 23 21 21 9 19 23 22 40 40 36 40 39 31 130 147 147 161 155 145 130 128 104 91 104 115 85 93 33 37 36 36 35 34 31 34 32 32 23 24 9 25 153 141 
21 14 14 11 19 21 25 37 24 19 20 9 17 22 21 23 25 22 21 21 21 23 22 19 20 17 38 32 33 31 32 36 38 161 102 108 101 155 142 128 130 116 98 116 94 101 152 130 36 35 36 31 38 34 29 33 36 32 28 29 22 29 117 158 
14 6 5 29 29 36 34 22 25 23 25 20 3 15 18 20 27 22 21 21 19 21 17 27 36 24 23 35 35 30 31 32 36 202 156 111 157 152 131 115 87 99 116 96 187 174 172 116 13 35 32 35 36 39 28 32 30 30 32 30 28 25 6 156 
43 7 29 28 36 32 36 45 31 21 224 224 224 224 224 224 22 224 19 47 224 224 224 20 224 224 26 224 224 224 34 224 224 202 224 121 224 224 224 224 94 224 224 224 183 182 224 224 224 33 224 224 33 224 28 29 27 27 32 32 25 17 23 137 
182 13 28 4 36 26 34 27 23 31 40 224 224 13 224 224 22 224 32 30 224 25 224 224 224 224 24 224 29 224 36 224 224 197 224 140 224 224 122 224 14 224 224 224 186 193 224 224 224 30 224 224 31 224 29 26 31 34 32 31 29 21 25 100 
175 14 2 28 16 39 29 44 32 36 34 224 224 16 224 224 33 224 27 35 224 16 224 224 224 224 33 224 27 224 149 224 224 197 224 224 224 224 103 224 21 224 224 224 186 191 166 224 224 16 224 224 31 224 29 32 32 64 43 23 27 30 21 12 
176 128 21 14 42 42 36 36 34 32 32 224 224 49 224 224 224 224 36 20 224 21 224 179 224 224 32 224 34 224 224 224 224 205 224 224 224 224 116 224 20 224 224 224 194 187 183 224 224 163 224 224 169 224 23 29 21 68 51 61 61 76 21 24 
177 150 4 46 37 43 43 38 32 29 43 224 224 21 224 224 224 224 21 14 224 19 224 27 224 224 26 224 224 224 224 224 224 107 224 224 224 224 224 224 17 224 224 185 224 186 192 224 224 224 224 224 224 224 21 25 14 65 71 54 52 50 18 23 
184 165 22 33 49 41 21 20 46 37 32 34 21 21 24 25 27 21 14 19 18 18 25 26 25 25 20 14 21 25 27 24 29 120 132 137 158 161 20 14 18 15 22 164 110 170 186 179 171 131 20 33 29 32 25 29 30 35 27 34 43 48 28 26 
182 7 20 50 29 19 5 42 42 22 27 21 18 20 21 19 18 11 12 22 20 22 24 19 20 14 20 21 4 21 21 26 37 30 118 114 60 12 15 14 18 14 21 25 81 54 188 175 168 140 23 36 30 34 26 27 25 26 21 21 25 30 30 20 
183 15 35 34 19 13 36 224 224 22 21 224 224 22 224 20 224 224 224 224 224 224 224 224 224 26 224 224 12 224 15 224 4 224 224 8 224 224 224 17 17 20 224 224 224 224 145 224 224 129 78 224 224 29 224 224 29 224 21 22 23 27 28 21 
179 34 38 18 21 33 34 224 224 224 224 98 224 18 224 224 224 224 224 224 224 224 224 224 224 16 224 224 14 224 224 224 7 224 224 224 224 18 224 22 17 22 224 224 224 224 42 224 224 152 123 224 224 224 224 224 24 224 23 22 20 26 29 21 
7 36 26 21 36 28 21 224 20 20 224 96 224 21 224 224 17 224 224 224 224 224 224 224 224 5 224 224 5 224 224 224 4 224 224 224 224 19 224 6 14 22 224 224 224 224 224 224 224 160 115 224 224 224 224 224 25 224 25 23 19 22 22 16 
16 25 21 23 29 21 21 224 224 224 224 96 224 13 224 224 18 224 224 224 13 224 224 224 224 14 224 224 224 224 224 224 15 224 224 224 224 17 224 17 7 1 224 224 98 224 224 224 224 157 86 224 224 224 224 224 29 224 28 23 26 24 23 22 
21 21 22 18 23 19 21 224 224 224 224 224 224 13 224 224 14 224 224 224 12 224 224 224 224 6 224 187 224 224 9 224 9 224 224 216 224 224 224 224 21 16 224 224 27 224 224 145 224 171 29 224 224 224 224 224 188 224 24 22 21 28 24 22 
21 19 24 18 30 16 21 19 14 16 10 15 10 14 17 14 13 11 10 9 11 13 4 4 2 4 6 7 9 14 15 11 10 7 7 11 14 16 18 224 21 21 16 3 19 24 25 22 26 171 7 20 25 21 24 27 22 24 21 21 20 23 28 21 
22 35 24 11 11 18 18 14 12 11 14 13 13 17 13 9 7 11 7 5 3 1 2 3 6 6 7 5 6 11 14 11 12 12 8 9 10 14 17 19 21 21 18 14 5 1 22 23 24 176 25 29 27 21 25 25 25 25 23 21 21 21 29 17 
181 35 17 14 11 16 14 14 14 10 11 13 13 8 7 6 7 3 2 6 6 6 5 4 1 1 2 3 4 6 12 12 14 14 7 8 7 14 16 21 21 20 21 16 17 9 2 24 10 150 29 26 18 23 23 21 26 26 25 24 21 19 28 19 
184 177 35 14 9 12 15 11 13 10 8 8 7 7 7 6 7 7 5 5 2 6 2 1 1 2 2 2 2 7 8 8 14 10 11 10 11 13 16 20 22 21 23 22 16 18 16 3 4 1 24 19 22 21 21 20 22 26 25 23 21 20 26 14 
